<svg width="41" height="40" viewBox="0 0 41 40" fill="none" xmlns="http://www.w3.org/2000/svg">
<circle cx="20.0654" cy="20" r="20" fill="#BF83FF"/>
<path d="M22.8862 12.5H17.9016V9.5H22.8862V12.5ZM28.2268 12.5V29C28.2268 29.8284 27.5891 30.5 26.8026 30.5H13.9852C13.1987 30.5 12.561 29.8284 12.561 29V12.5C12.561 11.6716 13.1987 11 13.9852 11H16.4775V12.5C16.4775 13.3284 17.1151 14 17.9016 14H22.8862C23.6727 14 24.3103 13.3284 24.3103 12.5V11H26.8026C27.5891 11 28.2268 11.6716 28.2268 12.5ZM15.4663 16.715C15.4298 16.8052 15.4105 16.902 15.4093 17C15.4108 17.1988 15.4847 17.3895 15.6159 17.5325C15.6851 17.5987 15.7646 17.6519 15.8508 17.69C15.9364 17.7284 16.0284 17.7488 16.1214 17.75C16.1618 17.7521 16.4401 17.7619 16.6499 17.528C16.8444 17.3112 16.8357 17.0459 16.8335 17C16.8307 16.8015 16.757 16.6113 16.627 16.4675C16.5998 16.4421 16.3391 16.2073 15.9809 16.2875C15.6314 16.3658 15.483 16.6783 15.4663 16.715ZM24.4869 21.002C24.2259 20.6922 23.7758 20.6639 23.4817 20.9388L23.4815 20.939L19.1485 24.989L17.3177 23.1995C17.0247 22.9232 16.5745 22.9494 16.3122 23.258C16.0564 23.5589 16.0728 24.0191 16.3493 24.299L18.6536 26.549C18.9222 26.8112 19.3358 26.8161 19.6099 26.5602L24.4271 22.0602C24.7209 21.7853 24.7477 21.3117 24.4869 21.002ZM25.3785 17C25.3785 16.5858 25.0597 16.25 24.6664 16.25H18.2577C17.8644 16.25 17.5456 16.5858 17.5456 17C17.5456 17.4142 17.8644 17.75 18.2577 17.75H24.6664C25.0597 17.75 25.3785 17.4142 25.3785 17Z" fill="white"/>
</svg>
