<svg width="41" height="40" viewBox="0 0 41 40" fill="none" xmlns="http://www.w3.org/2000/svg">
<circle cx="20.0654" cy="20" r="20" fill="#3CD856"/>
<g clip-path="url(#clip0_1530_11186)">
<path fill-rule="evenodd" clip-rule="evenodd" d="M20.0005 9C13.9333 9 9.00049 13.9328 9.00049 20C9.00049 26.0672 13.9333 31 20.0005 31C26.0677 31 31.0005 26.0672 31.0005 20C31.0005 13.9328 26.0677 9 20.0005 9Z" fill="white"/>
<path fill-rule="evenodd" clip-rule="evenodd" d="M25.3198 16.2919C25.5862 16.5583 25.5862 16.9966 25.3198 17.263L18.8745 23.7083C18.7413 23.8415 18.5651 23.9103 18.389 23.9103C18.2128 23.9103 18.0366 23.8415 17.9034 23.7083L14.6808 20.4856C14.4144 20.2192 14.4144 19.781 14.6808 19.5146C14.9472 19.2481 15.3854 19.2481 15.6519 19.5146L18.389 22.2517L24.3487 16.2919C24.6151 16.0212 25.0534 16.0212 25.3198 16.2919Z" fill="#3CD856"/>
</g>
<defs>
<clipPath id="clip0_1530_11186">
<rect width="22" height="22" fill="white" transform="translate(9.00049 9)"/>
</clipPath>
</defs>
</svg>
