<svg width="41" height="40" viewBox="0 0 41 40" fill="none" xmlns="http://www.w3.org/2000/svg">
<circle cx="20.0654" cy="20" r="20" fill="#FA5A7D"/>
<path fill-rule="evenodd" clip-rule="evenodd" d="M12.7983 14C12.7983 11.7909 14.4987 10 16.5961 10H22.2927V14C22.2927 16.2091 23.993 18 26.0905 18H27.9894V26C27.9894 28.2091 26.289 30 24.1916 30H16.5961C14.4987 30 12.7983 28.2091 12.7983 26V14ZM16.5961 19C16.0717 19 15.6467 19.4477 15.6467 20C15.6467 20.5523 16.0717 21 16.5961 21H18.495C19.0193 21 19.4444 20.5523 19.4444 20C19.4444 19.4477 19.0193 19 18.495 19H16.5961ZM16.5961 23C16.0717 23 15.6467 23.4477 15.6467 24C15.6467 24.5523 16.0717 25 16.5961 25H20.3938C20.9182 25 21.3433 24.5523 21.3433 24C21.3433 23.4477 20.9182 23 20.3938 23H16.5961ZM24.8389 12.1988L24.7146 14.1629C24.6764 14.7666 25.1519 15.2674 25.7251 15.2272L27.5899 15.0962C28.4038 15.0391 28.7749 13.9989 28.1981 13.3913L26.4576 11.5582C25.8808 10.9507 24.8932 11.3415 24.8389 12.1988Z" fill="white"/>
</svg>
