<svg width="41" height="40" viewBox="0 0 41 40" fill="none" xmlns="http://www.w3.org/2000/svg">
<circle cx="20.0654" cy="20" r="20" fill="#FF947A"/>
<g clip-path="url(#clip0_1530_11197)">
<path d="M20 8.75C17.775 8.75 15.5999 9.4098 13.7498 10.646C11.8998 11.8821 10.4578 13.6391 9.60636 15.6948C8.75487 17.7505 8.53209 20.0125 8.96617 22.1948C9.40025 24.3771 10.4717 26.3816 12.0451 27.955C13.6184 29.5283 15.623 30.5998 17.8052 31.0338C19.9875 31.4679 22.2495 31.2451 24.3052 30.3936C26.3609 29.5422 28.1179 28.1002 29.354 26.2502C30.5902 24.4001 31.25 22.225 31.25 20C31.2488 17.0167 30.0632 14.1559 27.9536 12.0464C25.8441 9.93684 22.9833 8.75119 20 8.75ZM23.705 22.655C23.7762 22.7227 23.8328 22.8041 23.8715 22.8944C23.9103 22.9846 23.9302 23.0818 23.9302 23.18C23.9302 23.2782 23.9103 23.3754 23.8715 23.4656C23.8328 23.5559 23.7762 23.6373 23.705 23.705C23.638 23.7771 23.5567 23.8343 23.4663 23.873C23.3759 23.9118 23.2784 23.9312 23.18 23.93C23.0818 23.9299 22.9847 23.9098 22.8945 23.8712C22.8043 23.8325 22.7228 23.776 22.655 23.705L20 21.05L17.345 23.705C17.2772 23.776 17.1957 23.8325 17.1055 23.8712C17.0153 23.9098 16.9182 23.9299 16.82 23.93C16.7216 23.9312 16.6241 23.9118 16.5337 23.873C16.4433 23.8343 16.362 23.7771 16.295 23.705C16.2238 23.6373 16.1672 23.5559 16.1285 23.4656C16.0897 23.3754 16.0698 23.2782 16.0698 23.18C16.0698 23.0818 16.0897 22.9846 16.1285 22.8944C16.1672 22.8041 16.2238 22.7227 16.295 22.655L18.95 20L16.295 17.345C16.1581 17.2053 16.0818 17.0172 16.0828 16.8216C16.0838 16.6259 16.162 16.4386 16.3003 16.3003C16.4386 16.1619 16.6259 16.0838 16.8216 16.0828C17.0172 16.0818 17.2053 16.1581 17.345 16.295L20 18.95L22.655 16.295C22.7237 16.2249 22.8056 16.1691 22.896 16.1309C22.9864 16.0926 23.0834 16.0727 23.1816 16.0722C23.2797 16.0717 23.377 16.0907 23.4677 16.128C23.5585 16.1653 23.6409 16.2203 23.7103 16.2897C23.7797 16.3591 23.8347 16.4415 23.872 16.5323C23.9093 16.623 23.9283 16.7203 23.9278 16.8184C23.9273 16.9166 23.9074 17.0136 23.8691 17.104C23.8309 17.1944 23.7751 17.2763 23.705 17.345L21.05 20L23.705 22.655Z" fill="white"/>
</g>
<defs>
<clipPath id="clip0_1530_11197">
<rect width="24" height="24" fill="white" transform="translate(8 8)"/>
</clipPath>
</defs>
</svg>
