<svg width="30" height="26" viewBox="0 0 30 26" fill="none" xmlns="http://www.w3.org/2000/svg">
<rect width="29.712" height="25.6287" rx="3" fill="#3340B1"/>
<path d="M8.30056 18.3281C8.10959 18.1372 8.0141 17.8941 8.0141 17.599C8.0141 17.3038 8.10959 17.0608 8.30056 16.8698L12.337 12.8073L8.30056 8.74479C8.10959 8.55382 8.00959 8.31528 8.00056 8.02917C7.99153 7.74306 8.09153 7.49549 8.30056 7.28646C8.49153 7.09549 8.73459 7 9.02973 7C9.32487 7 9.56792 7.09549 9.75889 7.28646L14.5506 12.0781C14.6547 12.1823 14.7287 12.2951 14.7724 12.4167C14.8162 12.5382 14.8377 12.6684 14.837 12.8073C14.837 12.9462 14.8155 13.0764 14.7724 13.1979C14.7294 13.3194 14.6554 13.4323 14.5506 13.5365L9.75889 18.3281C9.56792 18.5191 9.32938 18.6191 9.04327 18.6281C8.75716 18.6372 8.50959 18.5372 8.30056 18.3281ZM15.1756 18.3281C14.9846 18.1372 14.8891 17.8941 14.8891 17.599C14.8891 17.3038 14.9846 17.0608 15.1756 16.8698L19.212 12.8073L15.1756 8.74479C14.9846 8.55382 14.8846 8.31528 14.8756 8.02917C14.8665 7.74306 14.9665 7.49549 15.1756 7.28646C15.3665 7.09549 15.6096 7 15.9047 7C16.1999 7 16.4429 7.09549 16.6339 7.28646L21.4256 12.0781C21.5297 12.1823 21.6037 12.2951 21.6474 12.4167C21.6912 12.5382 21.7127 12.6684 21.712 12.8073C21.712 12.9462 21.6901 13.0764 21.6464 13.1979C21.6026 13.3194 21.529 13.4323 21.4256 13.5365L16.6339 18.3281C16.4429 18.5191 16.2044 18.6191 15.9183 18.6281C15.6322 18.6372 15.3846 18.5372 15.1756 18.3281Z" fill="white"/>
</svg>
