<svg width="20" height="20" viewBox="0 0 20 20" fill="none" xmlns="http://www.w3.org/2000/svg">
<g id="mdi:dots-vertical">
<path id="Vector" d="M10.0002 13.3334C10.4422 13.3334 10.8661 13.509 11.1787 13.8215C11.4912 14.1341 11.6668 14.558 11.6668 15C11.6668 15.4421 11.4912 15.866 11.1787 16.1786C10.8661 16.4911 10.4422 16.6667 10.0002 16.6667C9.55814 16.6667 9.13421 16.4911 8.82165 16.1786C8.50909 15.866 8.3335 15.4421 8.3335 15C8.3335 14.558 8.50909 14.1341 8.82165 13.8215C9.13421 13.509 9.55814 13.3334 10.0002 13.3334ZM10.0002 8.33337C10.4422 8.33337 10.8661 8.50897 11.1787 8.82153C11.4912 9.13409 11.6668 9.55801 11.6668 10C11.6668 10.4421 11.4912 10.866 11.1787 11.1786C10.8661 11.4911 10.4422 11.6667 10.0002 11.6667C9.55814 11.6667 9.13421 11.4911 8.82165 11.1786C8.50909 10.866 8.3335 10.4421 8.3335 10C8.3335 9.55801 8.50909 9.13409 8.82165 8.82153C9.13421 8.50897 9.55814 8.33337 10.0002 8.33337ZM10.0002 3.33337C10.4422 3.33337 10.8661 3.50897 11.1787 3.82153C11.4912 4.13409 11.6668 4.55801 11.6668 5.00004C11.6668 5.44207 11.4912 5.86599 11.1787 6.17855C10.8661 6.49111 10.4422 6.66671 10.0002 6.66671C9.55814 6.66671 9.13421 6.49111 8.82165 6.17855C8.50909 5.86599 8.3335 5.44207 8.3335 5.00004C8.3335 4.55801 8.50909 4.13409 8.82165 3.82153C9.13421 3.50897 9.55814 3.33337 10.0002 3.33337Z" fill="white"/>
</g>
</svg>
